<?xml version="1.0" standalone="no"?>
<svg version="1.1" id="Layer_1" xmlns="http://www.w3.org/2000/svg" xmlns:xlink="http://www.w3.org/1999/xlink" x="0px" y="0px" width="100%" height="auto" viewBox="0 0 595.28 595.28" enable-background="new 0 0 595.28 595.28" xml:space="preserve">
<text id="color_x5F_7" transform="matrix(1 0 0 1 420.9443 297.6396)" font-family="'MyriadPro-Regular'" font-size="12"></text>
<path id="color_x5F_6" fill="#EF9E29" d="M313.258,392.155c0,0-1.217,3.339-6.945,6.086c-2.834,1.358-6.782,2.568-12.225,3.16
	c-0.276,0.03-0.547,0.063-0.831,0.09c-5.049,0.477-9.901,0.021-14.199-0.832c-5.145-1.022-9.488-2.615-12.422-3.881
	c-2.557-1.103-4.045-1.955-4.045-1.955s1.713-15.442,3.521-30.744c0.605,0.954,1.487,1.767,2.741,2.324
	c1.234,0.549,2.441,0.823,3.61,0.823c1.028,0,2.027-0.213,2.992-0.638c4.303-1.895,6.348-7.406,6.592-8.104l2.038-4.206
	c0.673,0.221,1.397,0.328,2.149,0.287c3.215-0.172,5.682-2.881,5.513-6.053c-0.102-1.922-1.15-3.566-2.671-4.531l4.825-9.954
	l0.063-0.131l1.724-3.557l0.036-0.073l0.045-0.095l1.957-4.038l0.235-0.484l7.514-15.504l4.896-10.102
	c1.175,11.152-5.672,29.438-7.39,33.807c2.894,5.385,5.608,11.993,4.945,16.971c-0.574,4.309-9.333,11.334-9.333,11.334
	L313.258,392.155z M267.58,351.884c0.016,0.006,0.032,0.002,0.048,0.009c0.513,0.205,0.762,0.786,0.558,1.3
	c-0.036,0.091-3.571,9.138,1.478,11.383c1.808,0.803,3.438,0.865,4.983,0.184c3.698-1.629,5.505-6.92,5.523-6.974
	c0.014-0.041,0.03-0.08,0.048-0.119l2.098-4.328c-1.269-0.987-2.12-2.485-2.212-4.206c-0.029-0.557,0.027-1.098,0.149-1.615
	c0.533-2.243,2.395-4.01,4.767-4.377c0.196-0.031,0.395-0.052,0.598-0.063c0.553-0.029,1.09,0.023,1.605,0.138l3.914-8.074
	l0.712-1.47l1.523-3.143l3.021-6.231l0.323-0.667l8.779-18.113l4.225-8.717c-4.477-15.321-20.525-11.748-23.848-10.826
	c-0.389,0.108-0.614,0.182-0.614,0.182s0.437,0.074,1.152,0.268c2.106,0.568,6.649,2.18,9.75,6.023
	c0.748,0.927,1.408,1.985,1.934,3.188c0.578,1.323,0.994,2.819,1.164,4.521c0.059,0.59,0.063,1.206,0.038,1.836
	c-0.031,0.795-0.124,1.617-0.272,2.463c-0.006,0.037-0.012,0.073-0.019,0.11c-0.609,3.372-2.069,7.084-3.86,10.685
	c-0.329,0.661-0.666,1.318-1.014,1.969c-0.004,0.007-0.008,0.014-0.011,0.021c-1.515,2.835-3.172,5.533-4.705,7.869l-4.197,0.487
	c-0.641,0.074-1.336,0.181-2.06,0.318c-2.587,0.493-5.57,1.416-8.078,2.909c-1.119-0.38-2.264-0.741-3.388-1.077
	c-4.782-1.429-9.154-2.395-9.154-2.395s-3.591-4.92-8.015-10.439c-0.206,2.853-2.532,5.178-5.501,5.336
	c-0.904,0.049-1.768-0.114-2.55-0.436c2.166,4.283,4.091,8.684,10.161,14.605c4.375,4.268,8.426,7.094,12.021,9.017
	C268.325,345.929,267.961,348.802,267.58,351.884z" class="color_x5F_6 element-1"></path>
<path id="color_x5F_5" fill="#F0CF7F" d="M266.636,396.778c2.934,1.266,7.277,2.858,12.422,3.881
	c-0.364,2.316-0.814,5.429-1.334,8.83h-10.764C266.73,404.935,266.622,400.462,266.636,396.778z M306.313,398.241
	c-2.834,1.358-6.782,2.568-12.225,3.16c1.925,2.218,4.045,4.586,6.224,6.946l9.48-4.534
	C308.592,401.872,307.41,399.987,306.313,398.241z M272.135,305.905l0.66-5.973l3.959,0.746l0.044-0.066l3.707-5.637l-0.293,6.143
	l3.199,0.662l5.406,1.118c0.026,0.038,0.042,0.081,0.069,0.118c1.426,1.922,3.735,8.24,5.082,13.604
	c-0.019,0.018-0.037,0.036-0.055,0.054l0.176,0.438c0.01,0.042,0.021,0.084,0.031,0.126c-1.515,2.835-3.172,5.533-4.705,7.869
	l-4.197,0.487c-0.641,0.074-1.336,0.181-2.06,0.318l-2.387-5.921l-1.931-0.159C271.548,319.028,271.341,313.104,272.135,305.905z
	 M284.749,309.03c0.453,0.096,0.935-0.414,1.093-1.137c0.153-0.727-0.091-1.393-0.541-1.492c-0.455-0.1-0.937,0.408-1.094,1.133
	C284.057,308.261,284.302,308.929,284.749,309.03z M275.247,307.981c0.451,0.1,0.936-0.414,1.091-1.137
	c0.151-0.727-0.091-1.393-0.541-1.49c-0.453-0.102-0.938,0.408-1.091,1.131C274.555,307.21,274.798,307.882,275.247,307.981z
	 M248.409,308.759c-3.217,0.172-5.68,2.883-5.514,6.055c0.123,2.283,1.577,4.175,3.578,4.998c0.783,0.321,1.646,0.484,2.55,0.436
	c2.97-0.158,5.295-2.483,5.501-5.336c0.017-0.236,0.024-0.475,0.012-0.717C254.368,311.017,251.624,308.587,248.409,308.759z
	 M289.074,343.981c-0.561-0.355-1.185-0.617-1.852-0.767c-0.515-0.114-1.052-0.167-1.605-0.138
	c-0.203,0.011-0.402,0.031-0.598,0.063c-2.372,0.367-4.234,2.134-4.767,4.377c-0.123,0.518-0.179,1.059-0.149,1.615
	c0.093,1.721,0.944,3.219,2.212,4.206c0.525,0.409,1.121,0.729,1.767,0.94c0.673,0.221,1.397,0.328,2.149,0.287
	c3.215-0.172,5.682-2.881,5.513-6.053C291.643,346.591,290.595,344.946,289.074,343.981z" class="color_x5F_5 element-2"></path>
<path id="color_x5F_4" fill="#835C55" d="M299.296,301.991c-0.031,0.795-0.124,1.617-0.272,2.463
	c-0.006,0.037-0.012,0.073-0.019,0.11c-0.609,3.372-2.069,7.084-3.86,10.685c-0.329,0.661-0.666,1.318-1.014,1.969
	c-0.004,0.007-0.008,0.014-0.011,0.021c-0.01-0.042-0.021-0.084-0.031-0.126l-0.176-0.438c0.018-0.018,0.036-0.036,0.055-0.054
	c-1.347-5.364-3.656-11.683-5.082-13.604c-0.028-0.037-0.043-0.08-0.069-0.118l-5.406-1.118l-3.199-0.662l0.293-6.143l-3.707,5.637
	l-0.044,0.066l-3.959-0.746l-0.66,5.973c-0.793,7.199-0.586,13.123,6.707,13.928l1.931,0.159l2.387,5.921
	c-2.587,0.493-5.57,1.416-8.078,2.909c-1.119-0.38-2.264-0.741-3.388-1.077c-9.736-8.394-1.314-28.268-1.314-28.268
	c0.815-7.381,6.098-13.675,15.492-13.504c-0.389,0.108-0.614,0.182-0.614,0.182s0.437,0.074,1.152,0.268
	c2.106,0.568,6.649,2.18,9.75,6.023c0.748,0.927,1.408,1.985,1.934,3.188c0.578,1.323,0.994,2.819,1.164,4.521
	C299.317,300.745,299.32,301.361,299.296,301.991z M284.749,309.03c0.453,0.096,0.935-0.414,1.093-1.137
	c0.153-0.727-0.091-1.393-0.541-1.492c-0.455-0.1-0.937,0.408-1.094,1.133C284.057,308.261,284.302,308.929,284.749,309.03z
	 M275.797,305.354c-0.453-0.102-0.938,0.408-1.091,1.131c-0.151,0.725,0.092,1.396,0.541,1.496c0.451,0.1,0.936-0.414,1.091-1.137
	C276.49,306.118,276.247,305.452,275.797,305.354z" class="color_x5F_4 element-3"></path>
<path id="color_x5F_3" fill="#4F2D5B" d="M277.723,409.489h2.868l-4.198,25.342h-24.576c-0.028-0.115-0.044-0.236-0.042-0.367
	c0.047-3.426,8.792-2.572,11.876-3.887c1.453-0.621,0.273-21.088,0.273-21.088h3.035H277.723z M313.258,402.155l-3.466,1.658
	l-9.48,4.534l-2.387,1.142c0,0,13.11,15.357,12.315,16.723c-1.384,2.391-6.722,5.905-7.429,8.619h5.733l15.001-11.783
	L313.258,402.155z M280.219,357.666c-0.019,0.039-0.035,0.078-0.048,0.119c-0.018,0.054-1.825,5.345-5.523,6.974
	c-1.545,0.682-3.175,0.619-4.983-0.184c-5.049-2.245-1.514-11.292-1.478-11.383c0.204-0.514-0.045-1.095-0.558-1.3
	c-0.016-0.007-0.032-0.003-0.048-0.009c-0.502-0.169-1.052,0.068-1.251,0.566c-0.145,0.362-2.898,7.403-0.218,11.629
	c0.605,0.954,1.487,1.767,2.741,2.324c1.234,0.549,2.441,0.823,3.61,0.823c1.028,0,2.027-0.213,2.992-0.638
	c4.303-1.895,6.348-7.406,6.592-8.104l2.038-4.206c-0.646-0.211-1.241-0.531-1.767-0.94L280.219,357.666z M305.474,310.146
	l4.896-10.102l8.849-18.258l-1.81-0.852l-7.689,15.865l-4.225,8.717l-8.779,18.113l-0.323,0.667l-3.021,6.231l-1.523,3.143
	l-0.712,1.47l-3.914,8.074c0.667,0.149,1.291,0.411,1.852,0.767l4.825-9.954l0.063-0.131l1.724-3.557l0.036-0.073l0.045-0.095
	l1.957-4.038l0.235-0.484L305.474,310.146z" class="color_x5F_3 element-4"></path>
<path id="color_x5F_2" fill="#68B0A2" d="M378.308,309.593l-59.089-27.807l-1.81-0.852l-41.182-19.38l-2.715-1.277l-20.945-9.856
	c18.209-17.809,50.719-21.758,80.449-7.768C362.745,256.644,380.425,284.21,378.308,309.593z M160.369,251.519
	c1.915-24.857,5.41-48.699-9.806-51.512c-15.317-2.943-24.325,26.805-19.909,51.4c4.331,24.199-7.077,40.275-7.166,65.422
	c0.244,29.014,15.692,40.008,22.63,43.369c0.549,7.158,0.826,14.321,0.957,21.523c2.137,0.67,3.946,2.059,5.145,3.877
	c-0.104-8.425-0.393-16.773-1.02-25.121c0.784-0.725,1.845-1.76,3.102-3.096c-2.078-16.773-4.063-33.59-5.747-50.555
	c-0.521,0.287-1.215,0.271-1.637-0.395c-4.581-7.105-8.216-14.953-13.174-21.928c-0.97-1.354,0.825-3.264,1.79-1.885
	c4.789,6.771,8.396,14.258,12.724,21.203c-2.072-21.242-3.703-42.742-4.639-64.561c-0.064-1.725,2.375-2.186,2.448-0.482
	c1.086,25.736,3.167,51.014,5.785,75.965c1.695-3.795,3.343-7.594,4.177-11.711c0.331-1.639,2.718-0.984,2.394,0.641
	c-1.115,5.525-3.676,10.506-5.87,15.67c-0.055,0.121-0.131,0.199-0.193,0.285c1.27,11.818,2.68,23.57,4.13,35.303
	c7.921-9.467,19.195-26.395,13.144-49.688C161.455,270.401,158.88,276.265,160.369,251.519z M449.423,332.579
	c-0.047,0.104-0.112,0.172-0.166,0.244c1.087,10.119,2.295,20.184,3.536,30.23c6.783-8.105,16.437-22.602,11.255-42.549
	c-7.002-29.834-9.208-24.814-7.932-46.004c1.64-21.285,4.632-41.701-8.396-44.109c-13.116-2.52-20.83,22.951-17.048,44.014
	c3.708,20.723-6.06,34.488-6.136,56.021c0.209,24.844,13.437,34.256,19.378,37.137c0.192,2.506,0.346,5.014,0.468,7.523
	c1.581,0.272,3.062,0.822,4.399,1.592c-0.133-2.961-0.292-5.92-0.515-8.877c0.671-0.621,1.58-1.508,2.656-2.652
	c-1.779-14.361-3.479-28.762-4.921-43.289c-0.445,0.246-1.04,0.232-1.401-0.336c-3.923-6.086-7.035-12.805-11.281-18.777
	c-0.83-1.16,0.707-2.795,1.533-1.613c4.1,5.797,7.189,12.209,10.895,18.156c-1.774-18.191-3.171-36.602-3.972-55.285
	c-0.055-1.475,2.034-1.871,2.096-0.412c0.93,22.037,2.712,43.684,4.953,65.047c1.451-3.248,2.862-6.5,3.577-10.025
	c0.284-1.404,2.327-0.844,2.05,0.547C453.495,323.894,451.301,328.157,449.423,332.579z" class="color_x5F_2 element-5"></path>
<path id="color_x5F_1" fill="#B9D0B0" d="M255.231,297.437l1.766-3.589c0.366-0.743,1.266-1.051,2.008-0.684
	c0.743,0.365,1.049,1.265,0.684,2.008l-1.766,3.589c-0.261,0.53-0.793,0.838-1.347,0.838c-0.223,0-0.448-0.049-0.661-0.154
	C255.171,299.079,254.865,298.18,255.231,297.437z M260.734,289.647c0.213,0.105,0.438,0.154,0.661,0.154
	c0.554,0,1.086-0.308,1.347-0.838l3.054-6.208c0.366-0.743,0.06-1.643-0.684-2.008c-0.742-0.367-1.642-0.06-2.008,0.684
	l-3.054,6.208C259.685,288.383,259.991,289.282,260.734,289.647z M272.951,264.815c0.213,0.105,0.438,0.154,0.661,0.154
	c0.554,0,1.086-0.308,1.347-0.838l1.268-2.577l-2.715-1.277l-1.245,2.53C271.902,263.551,272.208,264.45,272.951,264.815z
	 M266.843,277.231c0.213,0.105,0.438,0.154,0.661,0.154c0.554,0,1.086-0.308,1.347-0.838l3.054-6.208
	c0.366-0.743,0.06-1.643-0.684-2.008c-0.741-0.366-1.642-0.06-2.008,0.684l-3.054,6.208
	C265.793,275.967,266.1,276.866,266.843,277.231z M174.919,392.438c0.213,0.105,0.438,0.154,0.661,0.154
	c0.554,0,1.086-0.308,1.347-0.838l1.766-3.589c0.366-0.743,0.06-1.643-0.684-2.008c-0.742-0.367-1.642-0.06-2.008,0.684
	l-1.766,3.589C173.87,391.174,174.176,392.073,174.919,392.438z M191.956,357.81c0.213,0.105,0.438,0.154,0.661,0.154
	c0.554,0,1.086-0.308,1.347-0.838l3.054-6.208c0.366-0.743,0.06-1.643-0.684-2.008c-0.741-0.366-1.642-0.06-2.008,0.684
	l-3.054,6.208C190.906,356.545,191.212,357.444,191.956,357.81z M179.739,382.642c0.213,0.105,0.438,0.154,0.661,0.154
	c0.554,0,1.086-0.308,1.347-0.838l3.054-6.208c0.366-0.743,0.06-1.643-0.684-2.008c-0.742-0.366-1.642-0.06-2.008,0.684
	l-3.054,6.208C178.689,381.377,178.996,382.276,179.739,382.642z M185.847,370.226c0.213,0.105,0.438,0.154,0.661,0.154
	c0.554,0,1.086-0.308,1.347-0.838l3.054-6.208c0.366-0.743,0.06-1.643-0.684-2.008c-0.742-0.367-1.642-0.06-2.008,0.684
	l-3.054,6.208C184.798,368.961,185.104,369.86,185.847,370.226z M198.064,345.393c0.213,0.105,0.438,0.154,0.661,0.154
	c0.554,0,1.086-0.308,1.347-0.838l1.766-3.589c0.366-0.743,0.06-1.643-0.684-2.008c-0.742-0.366-1.643-0.059-2.008,0.684
	l-1.766,3.589C197.015,344.128,197.321,345.027,198.064,345.393z M206.417,327.942c0.213,0.105,0.438,0.154,0.661,0.154
	c0.554,0,1.086-0.308,1.347-0.838l1.766-3.589c0.366-0.743,0.06-1.643-0.684-2.008c-0.742-0.367-1.642-0.06-2.008,0.684
	l-1.766,3.589C205.368,326.678,205.674,327.577,206.417,327.942z M211.237,318.146c0.213,0.105,0.438,0.154,0.661,0.154
	c0.554,0,1.086-0.308,1.347-0.838l3.054-6.208c0.366-0.743,0.06-1.643-0.684-2.008c-0.741-0.366-1.642-0.059-2.008,0.684
	l-3.054,6.208C210.188,316.881,210.494,317.78,211.237,318.146z M217.346,305.729c0.213,0.105,0.438,0.154,0.661,0.154
	c0.554,0,1.086-0.308,1.347-0.838l3.054-6.208c0.366-0.743,0.06-1.643-0.684-2.008c-0.741-0.367-1.642-0.06-2.008,0.684
	l-3.054,6.208C216.296,304.465,216.603,305.364,217.346,305.729z M223.454,293.313c0.213,0.105,0.438,0.154,0.661,0.154
	c0.554,0,1.086-0.308,1.347-0.838l3.054-6.208c0.366-0.743,0.06-1.643-0.684-2.008c-0.742-0.366-1.642-0.06-2.008,0.684
	l-3.054,6.208C222.405,292.049,222.711,292.948,223.454,293.313z M229.563,280.896c0.213,0.105,0.438,0.154,0.661,0.154
	c0.554,0,1.086-0.308,1.347-0.838l1.766-3.589c0.366-0.743,0.06-1.643-0.684-2.008c-0.741-0.366-1.642-0.06-2.008,0.684
	l-1.766,3.589C228.514,279.632,228.82,280.531,229.563,280.896z M357.911,209.446c0.213,0.105,0.438,0.154,0.661,0.154
	c0.554,0,1.086-0.308,1.347-0.838l1.766-3.589c0.366-0.743,0.06-1.643-0.684-2.008c-0.741-0.366-1.642-0.06-2.008,0.684
	l-1.766,3.589C356.861,208.182,357.167,209.081,357.911,209.446z M374.947,174.817c0.213,0.105,0.438,0.154,0.661,0.154
	c0.554,0,1.086-0.308,1.347-0.838l3.054-6.208c0.366-0.743,0.06-1.643-0.684-2.008c-0.742-0.366-1.642-0.06-2.008,0.684
	l-3.054,6.208C373.898,173.553,374.204,174.452,374.947,174.817z M368.839,187.233c0.213,0.105,0.438,0.154,0.661,0.154
	c0.554,0,1.086-0.308,1.347-0.838l3.054-6.208c0.366-0.743,0.06-1.643-0.684-2.008c-0.742-0.367-1.642-0.06-2.008,0.684
	l-3.054,6.208C367.79,185.969,368.096,186.868,368.839,187.233z M362.73,199.649c0.213,0.105,0.438,0.154,0.661,0.154
	c0.554,0,1.086-0.308,1.347-0.838l3.054-6.208c0.366-0.743,0.06-1.643-0.684-2.008c-0.741-0.367-1.642-0.06-2.008,0.684
	l-3.054,6.208C361.681,198.385,361.987,199.284,362.73,199.649z M381.056,162.4c0.213,0.105,0.438,0.154,0.661,0.154
	c0.554,0,1.086-0.308,1.347-0.838l1.766-3.589c0.366-0.743,0.06-1.643-0.684-2.008c-0.742-0.367-1.642-0.06-2.008,0.684
	l-1.766,3.589C380.007,161.136,380.313,162.035,381.056,162.4z M407.584,254.533c0.21,0.102,0.433,0.149,0.652,0.149
	c0.557,0,1.092-0.312,1.351-0.847l1.742-3.601c0.361-0.746,0.049-1.643-0.697-2.004c-0.745-0.358-1.642-0.049-2.003,0.697
	l-1.742,3.601C406.527,253.275,406.839,254.172,407.584,254.533z M418.365,232.248c0.21,0.102,0.433,0.149,0.652,0.149
	c0.557,0,1.092-0.312,1.351-0.847l3.013-6.229c0.361-0.746,0.049-1.643-0.697-2.004c-0.744-0.358-1.643-0.049-2.003,0.697
	l-3.013,6.229C417.308,230.99,417.62,231.887,418.365,232.248z M424.392,219.791c0.21,0.102,0.433,0.149,0.652,0.149
	c0.557,0,1.092-0.312,1.351-0.847l3.013-6.228c0.361-0.746,0.049-1.643-0.697-2.004c-0.744-0.358-1.643-0.049-2.003,0.697
	l-3.013,6.228C423.334,218.533,423.646,219.43,424.392,219.791z M412.339,244.704c0.21,0.102,0.433,0.149,0.652,0.149
	c0.557,0,1.092-0.312,1.351-0.847l3.013-6.229c0.361-0.746,0.049-1.643-0.697-2.004c-0.744-0.359-1.643-0.048-2.003,0.697
	l-3.013,6.229C411.282,243.446,411.594,244.343,412.339,244.704z M430.418,207.335c0.21,0.102,0.433,0.149,0.652,0.149
	c0.557,0,1.092-0.312,1.351-0.847l1.742-3.601c0.361-0.746,0.049-1.643-0.697-2.004c-0.744-0.359-1.642-0.048-2.003,0.697
	l-1.742,3.601C429.36,206.077,429.672,206.974,430.418,207.335z M171.71,405.276c0-0.438-0.354-0.793-0.792-0.793
	c-0.438,0-0.792,0.355-0.792,0.793v7.063c0,0.438,0.354,0.791,0.792,0.791c0.438,0,0.792-0.354,0.792-0.791V405.276z
	 M170.918,425.667c-0.438,0-0.792,0.354-0.792,0.791v7.064c0,0.438,0.354,0.791,0.792,0.791c0.438,0,0.792-0.354,0.792-0.791v-7.064
	C171.71,426.021,171.356,425.667,170.918,425.667z M164.652,419.397c0-0.436-0.355-0.791-0.793-0.791h-7.063
	c-0.438,0-0.793,0.355-0.793,0.791c0,0.439,0.355,0.793,0.793,0.793h7.063C164.296,420.19,164.652,419.837,164.652,419.397z
	 M185.834,419.397c0-0.436-0.355-0.791-0.792-0.791h-7.063c-0.438,0-0.792,0.355-0.792,0.791c0,0.439,0.354,0.793,0.792,0.793h7.063
	C185.479,420.19,185.834,419.837,185.834,419.397z M166.487,413.847l-4.995-4.994c-0.309-0.311-0.811-0.311-1.12,0
	c-0.31,0.309-0.31,0.811,0,1.121l4.994,4.994c0.31,0.309,0.812,0.309,1.121,0C166.796,414.657,166.796,414.157,166.487,413.847z
	 M175.35,424.95l4.995,4.996c0.31,0.309,0.812,0.309,1.121,0c0.309-0.311,0.309-0.813,0-1.123l-4.995-4.992
	c-0.309-0.311-0.811-0.311-1.121,0C175.041,424.14,175.041,424.642,175.35,424.95z M161.492,429.946l4.995-4.996
	c0.31-0.309,0.31-0.811,0-1.119c-0.309-0.311-0.811-0.311-1.121,0l-4.994,4.992c-0.31,0.311-0.31,0.813,0,1.123
	C160.681,430.255,161.183,430.255,161.492,429.946z M176.47,414.968l4.995-4.994c0.309-0.311,0.309-0.813,0-1.121
	c-0.309-0.311-0.811-0.311-1.121,0l-4.995,4.994c-0.309,0.311-0.309,0.811,0,1.121C175.659,415.276,176.161,415.276,176.47,414.968z
	 M217.393,391.075c0.438,0,0.792-0.354,0.792-0.791v-7.063c0-0.438-0.354-0.793-0.792-0.793c-0.438,0-0.792,0.355-0.792,0.793v7.063
	C216.6,390.722,216.954,391.075,217.393,391.075z M203.27,398.136h7.063c0.438,0,0.793-0.354,0.793-0.793
	c0-0.436-0.355-0.791-0.793-0.791h-7.063c-0.438,0-0.793,0.355-0.793,0.791C202.477,397.782,202.832,398.136,203.27,398.136z
	 M223.66,397.343c0,0.439,0.354,0.793,0.792,0.793h7.063c0.437,0,0.792-0.354,0.792-0.793c0-0.436-0.355-0.791-0.792-0.791h-7.063
	C224.014,396.552,223.66,396.907,223.66,397.343z M212.961,392.913c0.309-0.311,0.309-0.811,0-1.121l-4.995-4.994
	c-0.309-0.311-0.811-0.311-1.12,0c-0.31,0.309-0.31,0.811,0,1.121l4.994,4.994C212.15,393.222,212.652,393.222,212.961,392.913z
	 M221.824,402.896l4.995,4.996c0.31,0.309,0.812,0.309,1.121,0c0.309-0.311,0.309-0.813,0-1.123l-4.995-4.992
	c-0.309-0.311-0.811-0.311-1.121,0C221.515,402.085,221.515,402.587,221.824,402.896z M206.846,407.892
	c0.309,0.309,0.811,0.309,1.12,0l4.995-4.996c0.31-0.309,0.31-0.811,0-1.119c-0.309-0.311-0.811-0.311-1.121,0l-4.994,4.992
	C206.537,407.079,206.537,407.581,206.846,407.892z M226.818,386.798l-4.995,4.994c-0.309,0.311-0.309,0.811,0,1.121
	c0.31,0.309,0.812,0.309,1.121,0l4.995-4.994c0.309-0.311,0.309-0.813,0-1.121C227.63,386.487,227.128,386.487,226.818,386.798z
	 M347.784,221.573c0.438,0,0.792-0.354,0.792-0.791v-7.063c0-0.438-0.354-0.793-0.792-0.793c-0.438,0-0.792,0.355-0.792,0.793v7.063
	C346.991,221.22,347.345,221.573,347.784,221.573z M347.784,242.757c0.438,0,0.792-0.354,0.792-0.791v-7.064
	c0-0.438-0.354-0.791-0.792-0.791c-0.438,0-0.792,0.354-0.792,0.791v7.064C346.991,242.403,347.345,242.757,347.784,242.757z
	 M333.661,228.634h7.063c0.438,0,0.793-0.354,0.793-0.793c0-0.436-0.355-0.791-0.793-0.791h-7.063c-0.438,0-0.793,0.355-0.793,0.791
	C332.868,228.28,333.223,228.634,333.661,228.634z M362.699,227.841c0-0.436-0.355-0.791-0.792-0.791h-7.063
	c-0.438,0-0.792,0.355-0.792,0.791c0,0.439,0.354,0.793,0.792,0.793h7.063C362.344,228.634,362.699,228.28,362.699,227.841z
	 M342.231,223.411c0.31,0.309,0.812,0.309,1.121,0c0.309-0.311,0.309-0.811,0-1.121l-4.995-4.994c-0.309-0.311-0.811-0.311-1.12,0
	c-0.31,0.309-0.31,0.811,0,1.121L342.231,223.411z M357.209,238.39c0.31,0.309,0.812,0.309,1.121,0c0.309-0.311,0.309-0.813,0-1.123
	l-4.995-4.992c-0.309-0.311-0.811-0.311-1.121,0c-0.309,0.309-0.309,0.811,0,1.119L357.209,238.39z M343.352,232.274
	c-0.309-0.311-0.811-0.311-1.121,0l-4.994,4.992c-0.31,0.311-0.31,0.813,0,1.123c0.309,0.309,0.811,0.309,1.12,0l4.995-4.996
	C343.662,233.085,343.662,232.583,343.352,232.274z M353.335,223.411l4.995-4.994c0.309-0.311,0.309-0.813,0-1.121
	c-0.309-0.311-0.811-0.311-1.121,0l-4.995,4.994c-0.309,0.311-0.309,0.811,0,1.121C352.524,223.72,353.026,223.72,353.335,223.411z
	 M391.442,268.138c0.438,0,0.792-0.354,0.792-0.791v-7.063c0-0.438-0.354-0.793-0.792-0.793c-0.438,0-0.792,0.355-0.792,0.793v7.063
	C390.649,267.784,391.003,268.138,391.442,268.138z M391.442,289.321c0.438,0,0.792-0.354,0.792-0.791v-7.064
	c0-0.438-0.354-0.791-0.792-0.791c-0.438,0-0.792,0.354-0.792,0.791v7.064C390.649,288.968,391.003,289.321,391.442,289.321z
	 M385.175,274.405c0-0.436-0.355-0.791-0.793-0.791h-7.063c-0.438,0-0.793,0.355-0.793,0.791c0,0.439,0.355,0.793,0.793,0.793h7.063
	C384.82,275.198,385.175,274.845,385.175,274.405z M397.709,274.405c0,0.439,0.354,0.793,0.792,0.793h7.063
	c0.437,0,0.792-0.354,0.792-0.793c0-0.436-0.355-0.791-0.792-0.791h-7.063C398.063,273.614,397.709,273.97,397.709,274.405z
	 M380.896,263.86c-0.31,0.309-0.31,0.811,0,1.121l4.994,4.994c0.31,0.309,0.812,0.309,1.121,0c0.309-0.311,0.309-0.811,0-1.121
	l-4.995-4.994C381.707,263.55,381.205,263.55,380.896,263.86z M400.868,284.954c0.31,0.309,0.812,0.309,1.121,0
	c0.309-0.311,0.309-0.813,0-1.123l-4.995-4.992c-0.309-0.311-0.811-0.311-1.121,0c-0.309,0.309-0.309,0.811,0,1.119L400.868,284.954
	z M387.01,278.839c-0.309-0.311-0.811-0.311-1.121,0l-4.994,4.992c-0.31,0.311-0.31,0.813,0,1.123c0.309,0.309,0.811,0.309,1.12,0
	l4.995-4.996C387.32,279.649,387.32,279.147,387.01,278.839z M396.994,269.976l4.995-4.994c0.309-0.311,0.309-0.813,0-1.121
	c-0.309-0.311-0.811-0.311-1.121,0l-4.995,4.994c-0.309,0.311-0.309,0.811,0,1.121C396.183,270.284,396.685,270.284,396.994,269.976
	z M341.531,381.778v7.063c0,0.438,0.354,0.791,0.792,0.791c0.438,0,0.792-0.354,0.792-0.791v-7.063c0-0.438-0.354-0.793-0.792-0.793
	C341.885,380.985,341.531,381.341,341.531,381.778z M328.201,396.692h7.063c0.438,0,0.793-0.354,0.793-0.793
	c0-0.436-0.355-0.791-0.793-0.791h-7.063c-0.438,0-0.793,0.355-0.793,0.791C327.408,396.339,327.763,396.692,328.201,396.692z
	 M356.447,395.108h-7.063c-0.438,0-0.792,0.355-0.792,0.791c0,0.439,0.354,0.793,0.792,0.793h7.063c0.437,0,0.792-0.354,0.792-0.793
	C357.239,395.464,356.884,395.108,356.447,395.108z M336.771,391.47c0.31,0.309,0.812,0.309,1.121,0
	c0.309-0.311,0.309-0.811,0-1.121l-4.995-4.994c-0.309-0.311-0.811-0.311-1.12,0c-0.31,0.309-0.31,0.811,0,1.121L336.771,391.47z
	 M351.75,406.448c0.31,0.309,0.812,0.309,1.121,0c0.309-0.311,0.309-0.813,0-1.123l-4.995-4.992c-0.309-0.311-0.811-0.311-1.121,0
	c-0.309,0.309-0.309,0.811,0,1.119L351.75,406.448z M336.771,400.333l-4.994,4.992c-0.31,0.311-0.31,0.813,0,1.123
	c0.309,0.309,0.811,0.309,1.12,0l4.995-4.996c0.31-0.309,0.31-0.811,0-1.119C337.583,400.022,337.081,400.022,336.771,400.333z
	 M347.875,391.47l4.995-4.994c0.309-0.311,0.309-0.813,0-1.121c-0.309-0.311-0.811-0.311-1.121,0l-4.995,4.994
	c-0.309,0.311-0.309,0.811,0,1.121C347.064,391.778,347.566,391.778,347.875,391.47z M389.529,408.776v7.063
	c0,0.438,0.354,0.791,0.792,0.791c0.438,0,0.792-0.354,0.792-0.791v-7.063c0-0.438-0.354-0.793-0.792-0.793
	C389.883,407.983,389.529,408.339,389.529,408.776z M391.113,429.958c0-0.438-0.354-0.791-0.792-0.791
	c-0.438,0-0.792,0.354-0.792,0.791v4.873h-32.62v3h64.462v-3h-30.258V429.958z M376.199,423.69h7.063
	c0.438,0,0.793-0.354,0.793-0.793c0-0.436-0.355-0.791-0.793-0.791h-7.063c-0.438,0-0.793,0.355-0.793,0.791
	C375.406,423.337,375.761,423.69,376.199,423.69z M396.589,422.897c0,0.439,0.354,0.793,0.792,0.793h7.063
	c0.437,0,0.792-0.354,0.792-0.793c0-0.436-0.355-0.791-0.792-0.791h-7.063C396.943,422.106,396.589,422.462,396.589,422.897z
	 M385.89,417.347l-4.995-4.994c-0.309-0.311-0.811-0.311-1.12,0c-0.31,0.309-0.31,0.811,0,1.121l4.994,4.994
	c0.31,0.309,0.812,0.309,1.121,0C386.199,418.157,386.199,417.657,385.89,417.347z M399.747,433.446c0.31,0.309,0.812,0.309,1.121,0
	c0.309-0.311,0.309-0.813,0-1.123l-4.995-4.992c-0.309-0.311-0.811-0.311-1.121,0c-0.309,0.309-0.309,0.811,0,1.119L399.747,433.446
	z M380.895,433.446l4.995-4.996c0.31-0.309,0.31-0.811,0-1.119c-0.309-0.311-0.811-0.311-1.121,0l-4.994,4.992
	c-0.31,0.311-0.31,0.813,0,1.123C380.084,433.755,380.586,433.755,380.895,433.446z M395.873,418.468l4.995-4.994
	c0.309-0.311,0.309-0.813,0-1.121c-0.309-0.311-0.811-0.311-1.121,0l-4.995,4.994c-0.309,0.311-0.309,0.811,0,1.121
	C395.062,418.776,395.564,418.776,395.873,418.468z M143.92,437.831h53.997v-3H143.92V437.831z M302.811,434.831h-26.417h-24.576
	h-19.402v3h110.96v-3h-34.832H302.811z M403.257,399.917l1.766-3.589c0.366-0.743,0.06-1.643-0.684-2.008
	c-0.741-0.367-1.642-0.06-2.008,0.684l-1.766,3.589c-0.366,0.743-0.06,1.643,0.684,2.008c0.213,0.105,0.438,0.154,0.661,0.154
	C402.464,400.755,402.996,400.447,403.257,399.917z M421.48,360.978c0.554,0,1.086-0.308,1.347-0.838l3.561-7.238
	c0.366-0.743,0.06-1.643-0.684-2.008c-0.741-0.367-1.642-0.06-2.008,0.684l-3.561,7.238c-0.366,0.743-0.06,1.643,0.684,2.008
	C421.032,360.929,421.257,360.978,421.48,360.978z M409.453,380.528l-3.561,7.237c-0.366,0.743-0.06,1.643,0.684,2.008
	c0.213,0.105,0.438,0.154,0.661,0.154c0.554,0,1.086-0.308,1.347-0.838l3.561-7.237c0.366-0.743,0.06-1.643-0.684-2.008
	C410.72,379.479,409.819,379.785,409.453,380.528z M416.575,366.053l-3.561,7.237c-0.366,0.743-0.06,1.643,0.684,2.008
	c0.213,0.105,0.438,0.154,0.661,0.154c0.554,0,1.086-0.308,1.347-0.838l3.561-7.237c0.366-0.743,0.06-1.643-0.684-2.008
	C417.841,365.003,416.94,365.311,416.575,366.053z M360.751,378.101c0.213,0.105,0.438,0.154,0.661,0.154
	c0.554,0,1.086-0.308,1.347-0.838l1.766-3.589c0.366-0.743,0.06-1.643-0.684-2.008c-0.742-0.366-1.643-0.06-2.008,0.684
	l-1.766,3.589C359.702,376.836,360.008,377.735,360.751,378.101z M368.955,358.028l-3.561,7.237
	c-0.366,0.743-0.06,1.643,0.684,2.008c0.213,0.105,0.438,0.154,0.661,0.154c0.554,0,1.086-0.308,1.347-0.838l3.561-7.237
	c0.366-0.743,0.06-1.643-0.684-2.008C370.221,356.979,369.321,357.285,368.955,358.028z M376.076,343.553l-3.561,7.237
	c-0.366,0.743-0.06,1.643,0.684,2.008c0.213,0.105,0.438,0.154,0.661,0.154c0.554,0,1.086-0.308,1.347-0.838l3.561-7.237
	c0.366-0.743,0.06-1.643-0.684-2.008C377.343,342.502,376.442,342.81,376.076,343.553z M380.321,338.323
	c0.213,0.105,0.438,0.154,0.661,0.154c0.554,0,1.086-0.308,1.347-0.838l3.561-7.238c0.365-0.743,0.059-1.643-0.684-2.008
	c-0.741-0.367-1.641-0.06-2.008,0.684l-3.561,7.238C379.271,337.059,379.578,337.958,380.321,338.323z M387.442,323.848
	c0.213,0.105,0.438,0.154,0.661,0.154c0.554,0,1.086-0.308,1.347-0.838l1.766-3.589c0.366-0.743,0.06-1.643-0.684-2.008
	c-0.742-0.367-1.642-0.06-2.008,0.684l-1.766,3.589C386.393,322.583,386.699,323.482,387.442,323.848z M215.417,375.94
	c0.213,0.105,0.438,0.154,0.661,0.154c0.554,0,1.086-0.308,1.347-0.838l1.766-3.589c0.366-0.743,0.06-1.643-0.684-2.008
	c-0.741-0.367-1.642-0.06-2.008,0.684l-1.766,3.589C214.367,374.676,214.673,375.575,215.417,375.94z M226.345,353.728
	c0.213,0.105,0.438,0.154,0.661,0.154c0.554,0,1.086-0.308,1.347-0.838l3.054-6.208c0.366-0.743,0.06-1.643-0.684-2.008
	c-0.742-0.366-1.642-0.06-2.008,0.684l-3.054,6.208C225.295,352.463,225.602,353.362,226.345,353.728z M232.453,341.312
	c0.213,0.105,0.438,0.154,0.661,0.154c0.554,0,1.086-0.308,1.347-0.838l3.054-6.208c0.366-0.743,0.06-1.643-0.684-2.008
	c-0.742-0.367-1.643-0.06-2.008,0.684l-3.054,6.208C231.404,340.047,231.71,340.946,232.453,341.312z M220.236,366.144
	c0.213,0.105,0.438,0.154,0.661,0.154c0.554,0,1.086-0.308,1.347-0.838l3.054-6.208c0.366-0.743,0.06-1.643-0.684-2.008
	c-0.741-0.367-1.642-0.06-2.008,0.684l-3.054,6.208C219.187,364.879,219.493,365.778,220.236,366.144z M238.562,328.895
	c0.213,0.105,0.438,0.154,0.661,0.154c0.554,0,1.086-0.308,1.347-0.838l1.766-3.589c0.366-0.743,0.06-1.643-0.684-2.008
	c-0.742-0.366-1.642-0.06-2.008,0.684l-1.766,3.589C237.513,327.63,237.819,328.529,238.562,328.895z M188.884,412.331h53.997v-3
	h-24.696v-4.928c0-0.438-0.354-0.791-0.792-0.791c-0.438,0-0.792,0.354-0.792,0.791v4.928h-27.716V412.331z M373.375,409.331
	h-30.259v-6.371c0-0.438-0.354-0.791-0.792-0.791c-0.438,0-0.792,0.354-0.792,0.791v6.371h-22.154v3h53.997V409.331z
	 M161.764,390.319c-3.092,0-5.939,0.994-8.261,2.662c0.174-0.713,0.274-1.453,0.274-2.217c0-1.906-0.576-3.679-1.557-5.166
	c-1.199-1.818-3.008-3.207-5.145-3.877c-0.92-0.289-1.899-0.447-2.916-0.447c-3.921,0-7.285,2.318-8.785,5.637
	c-0.594-6.74-6.32-12.031-13.308-12.031c-7.381,0-13.365,5.902-13.365,13.184c0,1.582,0.296,3.094,0.816,4.5
	c-0.27-0.023-0.541-0.041-0.816-0.041c-5.072,0-9.188,4.059-9.188,9.063c0,0.455,0.045,0.9,0.111,1.338h76.142
	C175.113,395.856,169.098,390.319,161.764,390.319z M428.701,388.063c0,1.582,0.296,3.094,0.816,4.5
	c-0.27-0.023-0.541-0.041-0.816-0.041c-5.072,0-9.188,4.059-9.188,9.063c0,0.455,0.045,0.9,0.111,1.338h76.142
	c-0.653-7.066-6.669-12.604-14.003-12.604c-3.092,0-5.939,0.994-8.261,2.662c0.174-0.713,0.274-1.453,0.274-2.217
	c0-5.24-4.308-9.49-9.618-9.49c-3.921,0-7.285,2.318-8.785,5.637c-0.386-4.375-2.941-8.129-6.594-10.232
	c-1.337-0.77-2.818-1.319-4.399-1.592c-0.753-0.131-1.524-0.207-2.315-0.207C434.686,374.88,428.701,380.782,428.701,388.063z" class="color_x5F_1 element-6"></path>
</svg>